STDOUT:


STDERR:
ffmpeg version 7.0.2-essentials_build-www.gyan.dev Copyright (c) 2000-2024 the FFmpeg developers
  built with gcc 13.2.0 (Rev5, Built by MSYS2 project)
  configuration: --enable-gpl --enable-version3 --enable-static --disable-w32threads --disable-autodetect --enable-fontconfig --enable-iconv --enable-gnutls --enable-libxml2 --enable-gmp --enable-bzlib --enable-lzma --enable-zlib --enable-libsrt --enable-libssh --enable-libzmq --enable-avisynth --enable-sdl2 --enable-libwebp --enable-libx264 --enable-libx265 --enable-libxvid --enable-libaom --enable-libopenjpeg --enable-libvpx --enable-mediafoundation --enable-libass --enable-libfreetype --enable-libfribidi --enable-libharfbuzz --enable-libvidstab --enable-libvmaf --enable-libzimg --enable-amf --enable-cuda-llvm --enable-cuvid --enable-dxva2 --enable-d3d11va --enable-d3d12va --enable-ffnvcodec --enable-libvpl --enable-nvdec --enable-nvenc --enable-vaapi --enable-libgme --enable-libopenmpt --enable-libopencore-amrwb --enable-libmp3lame --enable-libtheora --enable-libvo-amrwbenc --enable-libgsm --enable-libopencore-amrnb --enable-libopus --enable-libspeex --enable-libvorbis --enable-librubberband
  libavutil      59.  8.100 / 59.  8.100
  libavcodec     61.  3.100 / 61.  3.100
  libavformat    61.  1.100 / 61.  1.100
  libavdevice    61.  1.100 / 61.  1.100
  libavfilter    10.  1.100 / 10.  1.100
  libswscale      8.  1.100 /  8.  1.100
  libswresample   5.  1.100 /  5.  1.100
  libpostproc    58.  1.100 / 58.  1.100
Splitting the commandline.
Reading option '-y' ... matched as option 'y' (overwrite output files) with argument '1'.
Reading option '-f' ... matched as option 'f' (force container format (auto-detected otherwise)) with argument 'webm'.
Reading option '-i' ... matched as input url with argument 'debug_audio\12345\10000\input.webm'.
Reading option '-acodec' ... matched as option 'acodec' (alias for -c:a (select encoder/decoder for audio streams)) with argument 'pcm_s16le'.
Reading option '-ar' ... matched as option 'ar' (set audio sampling rate (in Hz)) with argument '16000'.
Reading option '-ac' ... matched as option 'ac' (set number of audio channels) with argument '1'.
Reading option '-fflags' ... matched as AVOption 'fflags' with argument '+igndts'.
Reading option '-err_detect' ...Routing option err_detect to both codec and muxer layer
 matched as AVOption 'err_detect' with argument 'ignore_err'.
Reading option '-v' ... matched as option 'v' (set logging level) with argument 'debug'.
Reading option 'debug_audio\12345\10000\converted.wav' ... matched as output url.
Finished splitting the commandline.
Parsing a group of options: global .
Applying option y (overwrite output files) with argument 1.
Applying option v (set logging level) with argument debug.
Successfully parsed a group of options.
Parsing a group of options: input url debug_audio\12345\10000\input.webm.
Applying option f (force container format (auto-detected otherwise)) with argument webm.
Successfully parsed a group of options.
Opening an input file: debug_audio\12345\10000\input.webm.
[matroska,webm @ 0000022c54a31580] Opening 'debug_audio\12345\10000\input.webm' for reading
[file @ 0000022c54a32480] Setting default whitelist 'file,crypto,data'
st:0 removing common factor 1000000 from timebase
[matroska,webm @ 0000022c54a31580] Before avformat_find_stream_info() pos: 150 bytes read:29351 seeks:0 nb_streams:1
Transform tree:
    mdct_inv_float_avx2 - type: mdct_float, len: 120, factors[2]: [2, any], flags: [aligned, out_of_place, inv_only]
        fft_pfa_15xM_asm_float_avx2 - type: fft_float, len: 60, factors[2]: [15, 2], flags: [aligned, inplace, out_of_place, preshuf, asm_call]
            fft4_fwd_asm_float_sse2 - type: fft_float, len: 4, factor: 2, flags: [aligned, inplace, out_of_place, preshuf, asm_call]
Transform tree:
    mdct_inv_float_avx2 - type: mdct_float, len: 240, factors[2]: [2, any], flags: [aligned, out_of_place, inv_only]
        fft_pfa_15xM_asm_float_avx2 - type: fft_float, len: 120, factors[2]: [15, 2], flags: [aligned, inplace, out_of_place, preshuf, asm_call]
            fft8_asm_float_avx - type: fft_float, len: 8, factor: 2, flags: [aligned, inplace, out_of_place, preshuf, asm_call]
Transform tree:
    mdct_inv_float_avx2 - type: mdct_float, len: 480, factors[2]: [2, any], flags: [aligned, out_of_place, inv_only]
        fft_pfa_15xM_asm_float_avx2 - type: fft_float, len: 240, factors[2]: [15, 2], flags: [aligned, inplace, out_of_place, preshuf, asm_call]
            fft16_asm_float_fma3 - type: fft_float, len: 16, factor: 2, flags: [aligned, inplace, out_of_place, preshuf, asm_call]
Transform tree:
    mdct_inv_float_avx2 - type: mdct_float, len: 960, factors[2]: [2, any], flags: [aligned, out_of_place, inv_only]
        fft_pfa_15xM_asm_float_avx2 - type: fft_float, len: 480, factors[2]: [15, 2], flags: [aligned, inplace, out_of_place, preshuf, asm_call]
            fft32_asm_float_fma3 - type: fft_float, len: 32, factor: 2, flags: [aligned, inplace, out_of_place, preshuf, asm_call]
[SWR @ 0000022c54a48ec0] Using fltp internally between filters
[matroska,webm @ 0000022c54a31580] All info found
[matroska,webm @ 0000022c54a31580] After avformat_find_stream_info() pos: 29351 bytes read:29351 seeks:0 frames:1
Input #0, matroska,webm, from 'debug_audio\12345\10000\input.webm':
  Metadata:
    encoder         : Chrome
  Duration: N/A, start: 2.000000, bitrate: N/A
  Stream #0:0(eng), 1, 1/1000: Audio: opus, 48000 Hz, mono, fltp (default)
Successfully opened the file.
Parsing a group of options: output url debug_audio\12345\10000\converted.wav.
Applying option acodec (alias for -c:a (select encoder/decoder for audio streams)) with argument pcm_s16le.
Applying option ar (set audio sampling rate (in Hz)) with argument 16000.
Applying option ac (set number of audio channels) with argument 1.
Successfully parsed a group of options.
Opening an output file: debug_audio\12345\10000\converted.wav.
[out#0/wav @ 0000022c54a34400] No explicit maps, mapping streams automatically...
[aost#0:0/pcm_s16le @ 0000022c54a82b40] Created audio stream from input stream 0:0
Transform tree:
    mdct_inv_float_avx2 - type: mdct_float, len: 120, factors[2]: [2, any], flags: [aligned, out_of_place, inv_only]
        fft_pfa_15xM_asm_float_avx2 - type: fft_float, len: 60, factors[2]: [15, 2], flags: [aligned, inplace, out_of_place, preshuf, asm_call]
            fft4_fwd_asm_float_sse2 - type: fft_float, len: 4, factor: 2, flags: [aligned, inplace, out_of_place, preshuf, asm_call]
Transform tree:
    mdct_inv_float_avx2 - type: mdct_float, len: 240, factors[2]: [2, any], flags: [aligned, out_of_place, inv_only]
        fft_pfa_15xM_asm_float_avx2 - type: fft_float, len: 120, factors[2]: [15, 2], flags: [aligned, inplace, out_of_place, preshuf, asm_call]
            fft8_asm_float_avx - type: fft_float, len: 8, factor: 2, flags: [aligned, inplace, out_of_place, preshuf, asm_call]
Transform tree:
    mdct_inv_float_avx2 - type: mdct_float, len: 480, factors[2]: [2, any], flags: [aligned, out_of_place, inv_only]
        fft_pfa_15xM_asm_float_avx2 - type: fft_float, len: 240, factors[2]: [15, 2], flags: [aligned, inplace, out_of_place, preshuf, asm_call]
            fft16_asm_float_fma3 - type: fft_float, len: 16, factor: 2, flags: [aligned, inplace, out_of_place, preshuf, asm_call]
Transform tree:
    mdct_inv_float_avx2 - type: mdct_float, len: 960, factors[2]: [2, any], flags: [aligned, out_of_place, inv_only]
        fft_pfa_15xM_asm_float_avx2 - type: fft_float, len: 480, factors[2]: [15, 2], flags: [aligned, inplace, out_of_place, preshuf, asm_call]
            fft32_asm_float_fma3 - type: fft_float, len: 32, factor: 2, flags: [aligned, inplace, out_of_place, preshuf, asm_call]
[file @ 0000022c54a75d80] Setting default whitelist 'file,crypto,data'
Successfully opened the file.
Stream mapping:
  Stream #0:0 -> #0:0 (opus (native) -> pcm_s16le (native))
[aost#0:0/pcm_s16le @ 0000022c54a82b40] Starting thread...
[af#0:0 @ 0000022c54a7e240] Starting thread...
[aist#0:0/opus @ 0000022c54a33c00] [dec:opus @ 0000022c54a7fa40] Starting thread...
[in#0/matroska,webm @ 0000022c54a31200] Starting thread...
Press [q] to stop, [?] for help
[matroska,webm @ 0000022c54a31580] File ended prematurely at pos. 29351 (0x72a7)
[SWR @ 0000022c54a48bc0] Using fltp internally between filters
detected 24 logical cores
[in#0/matroska,webm @ 0000022c54a31200] EOF while reading input
[in#0/matroska,webm @ 0000022c54a31200] Terminating thread with return code 0 (success)
[aist#0:0/opus @ 0000022c54a33c00] [dec:opus @ 0000022c54a7fa40] Decoder thread received EOF packet
[aist#0:0/opus @ 0000022c54a33c00] [dec:opus @ 0000022c54a7fa40] Decoder returned EOF, finishing
[aist#0:0/opus @ 0000022c54a33c00] [dec:opus @ 0000022c54a7fa40] Terminating thread with return code 0 (success)
[graph_0_in_0:0 @ 0000022c54a7d400] Setting 'time_base' to value '1/48000'
[graph_0_in_0:0 @ 0000022c54a7d400] Setting 'sample_rate' to value '48000'
[graph_0_in_0:0 @ 0000022c54a7d400] Setting 'sample_fmt' to value 'fltp'
[graph_0_in_0:0 @ 0000022c54a7d400] Setting 'channel_layout' to value 'mono'
[graph_0_in_0:0 @ 0000022c54a7d400] tb:1/48000 samplefmt:fltp samplerate:48000 chlayout:mono
[format_out_0_0 @ 0000022c54a79840] Setting 'sample_fmts' to value 's16'
[format_out_0_0 @ 0000022c54a79840] Setting 'sample_rates' to value '16000'
[format_out_0_0 @ 0000022c54a79840] Setting 'channel_layouts' to value 'mono'
[format_out_0_0 @ 0000022c54a79840] auto-inserting filter 'auto_aresample_0' between the filter 'Parsed_anull_0' and the filter 'format_out_0_0'
[AVFilterGraph @ 0000022c54a81480] query_formats: 4 queried, 4 merged, 5 already done, 0 delayed
[auto_aresample_0 @ 0000022c54acf280] [SWR @ 0000022c54acf380] Using fltp internally between filters
[auto_aresample_0 @ 0000022c54acf280] ch:1 chl:mono fmt:fltp r:48000Hz -> ch:1 chl:mono fmt:s16 r:16000Hz
Output #0, wav, to 'debug_audio\12345\10000\converted.wav':
  Metadata:
    ISFT            : Lavf61.1.100
  Stream #0:0(eng), 0, 1/16000: Audio: pcm_s16le ([1][0][0][0] / 0x0001), 16000 Hz, mono, s16, 256 kb/s (default)
      Metadata:
        encoder         : Lavc61.3.100 pcm_s16le
[out#0/wav @ 0000022c54a34400] Starting thread...
[out_0_0 @ 0000022c54a79740] EOF on sink link out_0_0:default.
[af#0:0 @ 0000022c54a7e240] Filtergraph returned EOF, finishing
[af#0:0 @ 0000022c54a7e240] All consumers returned EOF
[aost#0:0/pcm_s16le @ 0000022c54a82b40] Encoder thread received EOF
[aost#0:0/pcm_s16le @ 0000022c54a82b40] Terminating thread with return code 0 (success)
[out#0/wav @ 0000022c54a34400] All streams finished
[out#0/wav @ 0000022c54a34400] Terminating thread with return code 0 (success)
[af#0:0 @ 0000022c54a7e240] Terminating thread with return code 0 (success)
[AVIOContext @ 0000022c54a75f80] Statistics: 1038 bytes written, 0 seeks, 1 writeouts
[out#0/wav @ 0000022c54a34400] Output file #0 (debug_audio\12345\10000\converted.wav):
[out#0/wav @ 0000022c54a34400]   Output stream #0:0 (audio): 2 frames encoded (480 samples); 2 packets muxed (960 bytes); 
[out#0/wav @ 0000022c54a34400]   Total: 2 packets (960 bytes) muxed
[out#0/wav @ 0000022c54a34400] video:0KiB audio:1KiB subtitle:0KiB other streams:0KiB global headers:0KiB muxing overhead: 8.125000%
size=       1KiB time=00:00:00.03 bitrate= 276.8kbits/s speed=  12x    
[in#0/matroska,webm @ 0000022c54a31200] Input file #0 (debug_audio\12345\10000\input.webm):
[in#0/matroska,webm @ 0000022c54a31200]   Input stream #0:0 (audio): 1 packets read (29186 bytes); 1 frames decoded; 0 decode errors (1440 samples); 
[in#0/matroska,webm @ 0000022c54a31200]   Total: 1 packets (29186 bytes) demuxed
[AVIOContext @ 0000022c54a326c0] Statistics: 29351 bytes read, 0 seeks
